<svg width="800" height="800" viewBox="0 0 800 800" fill="none" xmlns="http://www.w3.org/2000/svg">
<path fill-rule="evenodd" clip-rule="evenodd" d="M635.294 164.706H164.706V635.294H635.294V164.706ZM164.706 139.938H139.938V164.706V635.294V660.062H164.706H635.294H660.062V635.294V164.706V139.938H635.294H164.706ZM484.211 385.139V330.808H497.334L526.316 385.139H595.654L555.57 320.587C562.56 317.757 569.759 314.503 575.117 306.197C581.579 296.267 584.731 285.467 584.731 271.544C584.731 257.885 581.737 245.79 575.468 235.528C569.25 225.352 560.533 217.574 549.485 212.229C538.465 206.898 525.813 204.334 511.694 204.334H414.861V344.272L455.728 385.139H484.211ZM385.14 344.272L344.272 385.139H315.789L276.407 334.677L263.777 348.529V385.139H204.334V204.334H263.777V259.775L302.786 204.334H385.139L326.31 279.096L385.14 344.272ZM315.789 414.861H345.341L385.139 454.659V595.666H326.891L273.684 521.221V595.666H204.334V414.861H263.777L315.789 493.415V414.861ZM414.861 595.666V454.659L454.659 414.861H484.211V538.7H595.666V595.666H414.861ZM519.103 279.128L519.125 279.096C519.994 277.865 520.48 276.927 520.79 275.951C521.106 274.958 521.334 273.629 521.334 271.544C521.334 267.269 520.41 264.432 519.095 262.535L519.058 262.482L519.023 262.428C517.661 260.374 515.644 258.744 512.623 257.625L512.573 257.607L512.523 257.587C509.385 256.363 505.296 255.643 500.084 255.643H484.211V285.505H500.084C505.348 285.505 509.51 284.86 512.721 283.751C515.759 282.665 517.753 281.092 519.081 279.159L519.103 279.128Z" fill="white"/>
</svg>
