<svg width="393" height="852" viewBox="0 0 393 852" fill="none" xmlns="http://www.w3.org/2000/svg">
<path d="M57.6905 23.0628C58.3324 23.0628 58.9412 23.1818 59.5167 23.4197C60.0922 23.6521 60.6013 24.0174 61.044 24.5154C61.4923 25.0079 61.8437 25.6416 62.0982 26.4163C62.3528 27.1855 62.4801 28.1124 62.4801 29.1971V29.2137C62.4801 30.5584 62.2864 31.7094 61.899 32.6668C61.5116 33.6241 60.9555 34.3601 60.2306 34.8748C59.5112 35.3839 58.6506 35.6385 57.649 35.6385C56.913 35.6385 56.249 35.5056 55.6568 35.24C55.0702 34.9689 54.5833 34.5981 54.1959 34.1277C53.8141 33.6518 53.5567 33.1095 53.4239 32.5008L53.4073 32.4095H55.5074L55.5406 32.4925C55.6458 32.7692 55.7952 33.0126 55.9889 33.2229C56.1881 33.4332 56.426 33.5965 56.7027 33.7127C56.985 33.8234 57.3004 33.8787 57.649 33.8787C58.2799 33.8787 58.7945 33.6933 59.193 33.3225C59.5969 32.9462 59.8985 32.4454 60.0977 31.8201C60.3025 31.1892 60.4187 30.492 60.4464 29.7283C60.4519 29.6453 60.4547 29.5651 60.4547 29.4876C60.4547 29.4046 60.4547 29.3243 60.4547 29.2469L60.0811 27.2464C60.0811 26.7926 59.976 26.3803 59.7657 26.0096C59.5554 25.6388 59.2704 25.3455 58.9107 25.1297C58.5566 24.9138 58.1554 24.8059 57.7071 24.8059C57.2755 24.8059 56.8798 24.9111 56.5201 25.1214C56.1604 25.3317 55.8727 25.6194 55.6568 25.9846C55.441 26.3444 55.3331 26.7483 55.3331 27.1966V27.2132C55.3331 27.678 55.4355 28.0903 55.6402 28.45C55.845 28.8041 56.1244 29.0836 56.4786 29.2884C56.8328 29.4931 57.2367 29.5955 57.6905 29.5955C58.1443 29.5955 58.551 29.4959 58.9107 29.2967C59.2704 29.0974 59.5554 28.8207 59.7657 28.4666C59.976 28.1124 60.0811 27.7112 60.0811 27.263V27.2464H60.5792V29.4544H60.2887C60.1448 29.7698 59.9317 30.0631 59.6495 30.3343C59.3673 30.6054 59.0186 30.824 58.6036 30.99C58.1941 31.156 57.7127 31.239 57.1593 31.239C56.3956 31.239 55.7205 31.0675 55.1339 30.7244C54.5473 30.3813 54.0852 29.9109 53.7477 29.3133C53.4156 28.7156 53.2496 28.0405 53.2496 27.2879V27.2713C53.2496 26.4578 53.4378 25.7356 53.8141 25.1048C54.1959 24.4684 54.7216 23.9703 55.3912 23.6106C56.0663 23.2454 56.8328 23.0628 57.6905 23.0628ZM66.2486 33.7293C65.8723 33.7293 65.5569 33.6048 65.3023 33.3557C65.0533 33.1012 64.9288 32.7913 64.9288 32.4261C64.9288 32.0553 65.0533 31.7454 65.3023 31.4964C65.5569 31.2418 65.8723 31.1145 66.2486 31.1145C66.6305 31.1145 66.9459 31.2418 67.1949 31.4964C67.4439 31.7454 67.5685 32.0553 67.5685 32.4261C67.5685 32.7913 67.4439 33.1012 67.1949 33.3557C66.9459 33.6048 66.6305 33.7293 66.2486 33.7293ZM66.2486 27.5701C65.8723 27.5701 65.5569 27.4456 65.3023 27.1966C65.0533 26.942 64.9288 26.6321 64.9288 26.2669C64.9288 25.8961 65.0533 25.5862 65.3023 25.3372C65.5569 25.0826 65.8723 24.9554 66.2486 24.9554C66.6305 24.9554 66.9459 25.0826 67.1949 25.3372C67.4439 25.5862 67.5685 25.8961 67.5685 26.2669C67.5685 26.6321 67.4439 26.942 67.1949 27.1966C66.9459 27.4456 66.6305 27.5701 66.2486 27.5701ZM75.8277 35.3396V33.0403H69.9674V31.2888C70.2828 30.7521 70.5982 30.2125 70.9137 29.6702C71.2346 29.1279 71.5584 28.5883 71.8849 28.0515C72.2169 27.5092 72.5462 26.9752 72.8727 26.4495C73.2047 25.9182 73.5339 25.3953 73.8604 24.8806C74.1925 24.3605 74.5245 23.8541 74.8565 23.3616H77.8697V31.2722H79.4884V33.0403H77.8697V35.3396H75.8277ZM71.9596 31.3221H75.8609V25.0716H75.7364C75.4929 25.4479 75.2411 25.8352 74.981 26.2337C74.7265 26.6321 74.4692 27.0388 74.2091 27.4539C73.949 27.8689 73.6917 28.2867 73.4371 28.7073C73.1825 29.1223 72.9308 29.5402 72.6817 29.9607C72.4327 30.3758 72.192 30.788 71.9596 31.1975V31.3221ZM84.4439 35.3396V25.47H84.2945L81.3145 27.5701V25.5613L84.4439 23.3616H86.5772V35.3396H84.4439Z" fill="black"/>
<rect opacity="0.35" x="334" y="23.5" width="24" height="12" rx="3.8" stroke="black"/>
<path opacity="0.4" d="M359.5 27.7811V31.8566C360.305 31.5114 360.828 30.7085 360.828 29.8189C360.828 28.9293 360.305 28.1263 359.5 27.7811" fill="black"/>
<rect x="335.5" y="25" width="21" height="9" rx="2.5" fill="black"/>
<path fill-rule="evenodd" clip-rule="evenodd" d="M317.771 26.104C320.258 26.1041 322.65 27.0262 324.452 28.6797C324.588 28.8074 324.805 28.8058 324.939 28.6761L326.236 27.4126C326.304 27.3469 326.341 27.2578 326.341 27.1651C326.34 27.0724 326.302 26.9838 326.233 26.9188C321.502 22.5441 314.038 22.5441 309.307 26.9188C309.239 26.9837 309.2 27.0724 309.199 27.165C309.199 27.2577 309.236 27.3468 309.304 27.4126L310.602 28.6761C310.735 28.8059 310.952 28.8076 311.088 28.6797C312.891 27.0261 315.283 26.104 317.771 26.104ZM317.767 30.3243C319.124 30.3242 320.433 30.836 321.439 31.7601C321.576 31.8913 321.79 31.8884 321.923 31.7537L323.21 30.4344C323.278 30.3652 323.315 30.2713 323.314 30.1738C323.313 30.0762 323.274 29.9831 323.205 29.9153C320.141 27.0245 315.396 27.0245 312.332 29.9153C312.263 29.9831 312.224 30.0762 312.223 30.1738C312.222 30.2714 312.26 30.3653 312.327 30.4344L313.614 31.7537C313.747 31.8884 313.961 31.8913 314.097 31.7601C315.103 30.8366 316.411 30.3249 317.767 30.3243ZM320.292 33.1179C320.294 33.2232 320.256 33.3248 320.189 33.3986L318.012 35.8533C317.949 35.9255 317.862 35.9661 317.771 35.9661C317.68 35.9661 317.593 35.9255 317.529 35.8533L315.352 33.3986C315.285 33.3247 315.248 33.2231 315.25 33.1178C315.252 33.0124 315.293 32.9127 315.363 32.842C316.753 31.5282 318.789 31.5282 320.179 32.842C320.249 32.9127 320.29 33.0125 320.292 33.1179Z" fill="black"/>
<path fill-rule="evenodd" clip-rule="evenodd" d="M301.7 24.6821C301.7 24.049 301.222 23.5358 300.633 23.5358H299.567C298.978 23.5358 298.5 24.049 298.5 24.6821V34.616C298.5 35.2491 298.978 35.7622 299.567 35.7622H300.633C301.222 35.7622 301.7 35.2491 301.7 34.616V24.6821ZM294.266 25.9811H295.333C295.922 25.9811 296.399 26.5066 296.399 27.1548V34.5885C296.399 35.2367 295.922 35.7622 295.333 35.7622H294.266C293.677 35.7622 293.199 35.2367 293.199 34.5885V27.1548C293.199 26.5066 293.677 25.9811 294.266 25.9811ZM289.934 28.6302H288.867C288.278 28.6302 287.801 29.1623 287.801 29.8188V34.5736C287.801 35.23 288.278 35.7622 288.867 35.7622H289.934C290.523 35.7622 291.001 35.23 291.001 34.5736V29.8188C291.001 29.1623 290.523 28.6302 289.934 28.6302ZM284.633 31.0755H283.567C282.978 31.0755 282.5 31.6 282.5 32.2471V34.5905C282.5 35.2377 282.978 35.7622 283.567 35.7622H284.633C285.222 35.7622 285.7 35.2377 285.7 34.5905V32.2471C285.7 31.6 285.222 31.0755 284.633 31.0755Z" fill="black"/>
</svg>
